# xmcd
#
# Track frame offsets:
#   150
#   18856
#   35815
#   55633
#   75860
#   87184
#   107104
#   127291
#   138661
#
# Disc length: 2120 seconds
#
# Revision: 0
# Processed by: cddbd v1.5.1PL0 Copyright (c) Steve Scherf et al.
# Submitted via: Media_Universe 3.0
#
DISCID=70084609
DTITLE=Lee Ann Womack - The Season For Romance
DYEAR=1900
DGENRE=Country
TTITLE0=The Season For Romance
TTITLE1=Baby It's Cold Outside
TTITLE2=Let It Snow/Winter Wonderland
TTITLE3=Have Yourself A Merry Little Christmas
TTITLE4=Silent Night
TTITLE5=White Christmas
TTITLE6=Forever Christmas Eve
TTITLE7=The Man With The Bag
TTITLE8=What Are You Doing New Years Eve
EXTD=
EXTT0=
EXTT1=
EXTT2=
EXTT3=
EXTT4=
EXTT5=
EXTT6=
EXTT7=
EXTT8=
PLAYORDER=
